<?xml version="1.0" encoding="utf-8" ?>
<svg baseProfile="full" height="60" version="1.1" width="180" xmlns="http://www.w3.org/2000/svg" xmlns:ev="http://www.w3.org/2001/xml-events" xmlns:xlink="http://www.w3.org/1999/xlink"><defs /><rect fill="rgb(255,255,255)" height="20" stroke="black" stroke-width="1" width="20" x="20" y="20" /><text alignment-baseline="central" font-size="8px" text-anchor="middle" x="30" y="30">0</text><rect fill="rgb(205,205,205)" height="20" stroke="black" stroke-width="1" width="20" x="40" y="20" /><text alignment-baseline="central" font-size="8px" text-anchor="middle" x="50" y="30">2</text><rect fill="rgb(155,155,155)" height="20" stroke="black" stroke-width="1" width="20" x="60" y="20" /><text alignment-baseline="central" font-size="8px" text-anchor="middle" x="70" y="30">4</text><rect fill="rgb(105,105,105)" height="20" stroke="black" stroke-width="1" width="20" x="80" y="20" /><text alignment-baseline="central" font-size="8px" text-anchor="middle" x="90" y="30">6</text><rect fill="rgb(255,255,255)" height="20" stroke="black" stroke-width="1" width="20" x="100" y="20" /><text alignment-baseline="central" font-size="8px" text-anchor="middle" x="110" y="30">8</text><rect fill="rgb(205,205,205)" height="20" stroke="black" stroke-width="1" width="20" x="120" y="20" /><text alignment-baseline="central" font-size="8px" text-anchor="middle" x="130" y="30">10</text><rect fill="rgb(155,155,155)" height="20" stroke="black" stroke-width="1" width="20" x="140" y="20" /><text alignment-baseline="central" font-size="8px" text-anchor="middle" x="150" y="30">12</text><rect fill="rgb(105,105,105)" height="20" stroke="black" stroke-width="1" width="20" x="160" y="20" /><text alignment-baseline="central" font-size="8px" text-anchor="middle" x="170" y="30">14</text><rect fill="rgb(230,230,230)" height="20" stroke="black" stroke-width="1" width="20" x="20" y="40" /><text alignment-baseline="central" font-size="8px" text-anchor="middle" x="30" y="50">1</text><rect fill="rgb(180,180,180)" height="20" stroke="black" stroke-width="1" width="20" x="40" y="40" /><text alignment-baseline="central" font-size="8px" text-anchor="middle" x="50" y="50">3</text><rect fill="rgb(130,130,130)" height="20" stroke="black" stroke-width="1" width="20" x="60" y="40" /><text alignment-baseline="central" font-size="8px" text-anchor="middle" x="70" y="50">5</text><rect fill="rgb(80,80,80)" height="20" stroke="black" stroke-width="1" width="20" x="80" y="40" /><text alignment-baseline="central" font-size="8px" text-anchor="middle" x="90" y="50">7</text><rect fill="rgb(230,230,230)" height="20" stroke="black" stroke-width="1" width="20" x="100" y="40" /><text alignment-baseline="central" font-size="8px" text-anchor="middle" x="110" y="50">9</text><rect fill="rgb(180,180,180)" height="20" stroke="black" stroke-width="1" width="20" x="120" y="40" /><text alignment-baseline="central" font-size="8px" text-anchor="middle" x="130" y="50">11</text><rect fill="rgb(130,130,130)" height="20" stroke="black" stroke-width="1" width="20" x="140" y="40" /><text alignment-baseline="central" font-size="8px" text-anchor="middle" x="150" y="50">13</text><rect fill="rgb(80,80,80)" height="20" stroke="black" stroke-width="1" width="20" x="160" y="40" /><text alignment-baseline="central" font-size="8px" text-anchor="middle" x="170" y="50">15</text><text alignment-baseline="central" font-size="8px" text-anchor="middle" x="30" y="10">0</text><text alignment-baseline="central" font-size="8px" text-anchor="middle" x="50" y="10">1</text><text alignment-baseline="central" font-size="8px" text-anchor="middle" x="70" y="10">2</text><text alignment-baseline="central" font-size="8px" text-anchor="middle" x="90" y="10">3</text><text alignment-baseline="central" font-size="8px" text-anchor="middle" x="110" y="10">4</text><text alignment-baseline="central" font-size="8px" text-anchor="middle" x="130" y="10">5</text><text alignment-baseline="central" font-size="8px" text-anchor="middle" x="150" y="10">6</text><text alignment-baseline="central" font-size="8px" text-anchor="middle" x="170" y="10">7</text><text alignment-baseline="central" font-size="8px" text-anchor="middle" x="10" y="30">0</text><text alignment-baseline="central" font-size="8px" text-anchor="middle" x="10" y="50">1</text></svg>